<?xml version="1.0" encoding="UTF-8" standalone="no"?>
<!-- Created with Inkscape (http://www.inkscape.org/) -->

<svg
   width="102.99987mm"
   height="90.603447mm"
   viewBox="0 0 389.53619 342.65403"
   version="1.1"
   id="svg5"
   xml:space="preserve"
   xmlns:xlink="http://www.w3.org/1999/xlink"
   xmlns="http://www.w3.org/2000/svg"
   xmlns:svg="http://www.w3.org/2000/svg"><defs
     id="defs2"><linearGradient
       id="linearGradient14764"><stop
         style="stop-color:#b5f601;stop-opacity:1;"
         offset="0"
         id="stop14760" /><stop
         style="stop-color:#b5f601;stop-opacity:0;"
         offset="1"
         id="stop14762" /></linearGradient><linearGradient
       id="linearGradient14754"><stop
         style="stop-color:#b5f601;stop-opacity:1;"
         offset="0"
         id="stop14750" /><stop
         style="stop-color:#b5f601;stop-opacity:0;"
         offset="1"
         id="stop14752" /></linearGradient><linearGradient
       id="linearGradient10330"><stop
         style="stop-color:#c33764;stop-opacity:1;"
         offset="0"
         id="stop10326" /><stop
         style="stop-color:#303fbb;stop-opacity:1;"
         offset="1"
         id="stop10328" /></linearGradient><linearGradient
       id="linearGradient10324"><stop
         style="stop-color:#c33764;stop-opacity:1;"
         offset="0"
         id="stop10320" /><stop
         style="stop-color:#3241b5;stop-opacity:1;"
         offset="1"
         id="stop10322" /></linearGradient><linearGradient
       id="linearGradient9137"><stop
         style="stop-color:#c33764;stop-opacity:1;"
         offset="0"
         id="stop9135" /><stop
         style="stop-color:#1d2671;stop-opacity:1;"
         offset="1"
         id="stop9133" /></linearGradient><linearGradient
       id="linearGradient8168"><stop
         style="stop-color:#ba4279;stop-opacity:1;"
         offset="0"
         id="stop8164" /><stop
         style="stop-color:#ff7500;stop-opacity:1;"
         offset="1"
         id="stop8166" /></linearGradient><linearGradient
       xlink:href="#linearGradient10330"
       id="linearGradient8212"
       x1="858.31256"
       y1="1110.8157"
       x2="1028.8751"
       y2="1356.8082"
       gradientUnits="userSpaceOnUse"
       gradientTransform="translate(-183.07342,-2.9176709e-4)" /><linearGradient
       xlink:href="#linearGradient8168"
       id="linearGradient8350"
       gradientUnits="userSpaceOnUse"
       gradientTransform="matrix(1.0153644,0,0,0.87449881,-206.87365,170.28106)"
       x1="1123.0452"
       y1="978.61682"
       x2="1049.0679"
       y2="1356.8077" /><linearGradient
       xlink:href="#linearGradient8168"
       id="linearGradient9123"
       x1="1211.9485"
       y1="1129.3125"
       x2="1041.386"
       y2="1206.1128"
       gradientUnits="userSpaceOnUse"
       gradientTransform="translate(-184.75994,44.717448)" /><linearGradient
       xlink:href="#linearGradient10324"
       id="linearGradient9131"
       x1="858.31256"
       y1="1072.4155"
       x2="1028.8751"
       y2="1072.4155"
       gradientUnits="userSpaceOnUse"
       gradientTransform="translate(-183.07342,-2.9176709e-4)" /><linearGradient
       xlink:href="#linearGradient8168"
       id="linearGradient9147"
       x1="1236.5027"
       y1="978.61694"
       x2="1039.6995"
       y2="1054.8362"
       gradientUnits="userSpaceOnUse"
       gradientTransform="translate(-183.07342,47.463251)" /><linearGradient
       xlink:href="#linearGradient9137"
       id="linearGradient14746"
       x1="850.95312"
       y1="1191.1539"
       x2="1059.1025"
       y2="1191.1539"
       gradientUnits="userSpaceOnUse" /><linearGradient
       xlink:href="#linearGradient14754"
       id="linearGradient14756"
       x1="675.23914"
       y1="1243.3507"
       x2="845.8017"
       y2="1243.3507"
       gradientUnits="userSpaceOnUse" /><linearGradient
       xlink:href="#linearGradient14764"
       id="linearGradient14766"
       x1="675.23914"
       y1="1072.4153"
       x2="845.8017"
       y2="1072.4153"
       gradientUnits="userSpaceOnUse" /></defs><g
     id="layer1"
     transform="translate(-253.02019,-369.01035)"><g
       id="g2139"
       transform="translate(-416.54606,-650.81656)"><path
         id="rect7430"
         style="opacity:1;fill:url(#linearGradient8212);fill-opacity:1;stroke:none;stroke-width:0;stroke-linecap:round;stroke-dasharray:none"
         d="m 760.52138,1129.8935 c -47.24621,0 -85.28222,38.036 -85.28222,85.2822 v 56.35 c 0,47.2462 38.03601,85.2822 85.28222,85.2822 47.24622,0 85.2803,-38.036 85.2803,-85.2822 v -56.35 c 0,-47.2462 -38.03408,-85.2822 -85.2803,-85.2822 z m 0,76.8003 c 15.26449,0 27.55251,12.29 27.55251,27.5545 v 18.2048 c 0,15.2645 -12.28802,27.5525 -27.55251,27.5525 -15.26449,0 -27.55446,-12.288 -27.55446,-27.5525 v -18.2048 c 0,-15.2645 12.28997,-27.5545 27.55446,-27.5545 z" /><rect
         style="opacity:0.9;fill:url(#linearGradient9147);fill-opacity:1;stroke:none;stroke-width:13.2892;stroke-linecap:round;stroke-dasharray:none;paint-order:fill markers stroke"
         id="rect8353"
         width="196.80321"
         height="76.800323"
         x="856.62604"
         y="1025.4991"
         ry="38.400162" /><rect
         style="opacity:1;fill:url(#linearGradient8350);fill-opacity:1;stroke:none;stroke-width:11.3457;stroke-linecap:round;stroke-dasharray:none"
         id="rect8348"
         width="76.800323"
         height="330.72754"
         x="856.62604"
         y="1026.0803"
         ry="33.580894" /><rect
         style="opacity:1;fill:url(#linearGradient9131);fill-opacity:1;stroke:none;stroke-width:12.3716;stroke-linecap:round;stroke-dasharray:none;paint-order:fill markers stroke"
         id="rect8355"
         width="170.56256"
         height="76.800323"
         x="675.23914"
         y="1034.0151"
         ry="38.400162" /><rect
         style="opacity:0.9;fill:url(#linearGradient9123);fill-opacity:1;stroke:none;stroke-width:12.3716;stroke-linecap:round;stroke-dasharray:none;paint-order:fill markers stroke"
         id="rect8359"
         width="170.56256"
         height="76.800323"
         x="856.62604"
         y="1174.0299"
         ry="38.400162" /><path
         id="rect14733"
         style="opacity:0.9;fill:none;fill-opacity:1;stroke:url(#linearGradient14746);stroke-width:11.3457;stroke-linecap:round;stroke-dasharray:none;stroke-opacity:1;paint-order:fill markers stroke"
         d="m 895.0271,1025.4998 c -2.49259,0 -4.92212,0.2542 -7.27997,0.7036 -17.4419,1.2563 -31.12116,15.6856 -31.12116,33.4586 v 4.237 259.3274 c 0,18.6038 14.9779,33.5817 33.58169,33.5817 h 9.63693 c 18.6038,0 33.5817,-14.9779 33.5817,-33.5817 v -72.3952 h 55.36299 c 21.27372,0 38.39922,-17.1275 38.39922,-38.4012 0,-21.2736 -17.1255,-38.3991 -38.39922,-38.3991 h -55.36299 v -71.7308 h 81.60221 c 21.2736,0 38.4011,-17.1274 38.4011,-38.4011 0,-21.2737 -17.1275,-38.3992 -38.4011,-38.3992 z" /><path
         id="path14748"
         style="opacity:1;fill:none;fill-opacity:1;stroke:url(#linearGradient14756);stroke-width:11.3457;stroke-linecap:round;stroke-dasharray:none"
         d="m 760.52138,1129.8935 c -47.24621,0 -85.28222,38.036 -85.28222,85.2822 v 56.35 c 0,47.2462 38.03601,85.2822 85.28222,85.2822 47.24622,0 85.2803,-38.036 85.2803,-85.2822 v -56.35 c 0,-47.2462 -38.03408,-85.2822 -85.2803,-85.2822 z m 0,76.8003 c 15.26449,0 27.55251,12.29 27.55251,27.5545 v 18.2048 c 0,15.2645 -12.28802,27.5525 -27.55251,27.5525 -15.26449,0 -27.55446,-12.288 -27.55446,-27.5525 v -18.2048 c 0,-15.2645 12.28997,-27.5545 27.55446,-27.5545 z" /><rect
         style="opacity:1;fill:none;fill-opacity:1;stroke:url(#linearGradient14766);stroke-width:11.3457;stroke-linecap:round;stroke-dasharray:none;paint-order:fill markers stroke"
         id="rect14758"
         width="170.56256"
         height="76.800323"
         x="675.23914"
         y="1034.0151"
         ry="38.400162" /></g></g></svg>
